<svg width="40" height="38" fill="none" xmlns="http://www.w3.org/2000/svg"><path d="M15.902 33.804h8.353V21.646h-8.353v12.158zm6.839-1.475h-5.325V23.12h5.273v9.208h.052z" fill="#81B3D2"/><path d="M38.404 20.628l1.096-1.069-5.169-5.036V.788h-7.205v6.715L19.974.585.5 19.61l1.096 1.069L5.67 16.71V35.94H3.633v1.475h33.361V35.94h-2.663V16.66l4.073 3.968zM28.64 2.314h4.124v10.734L28.641 9.03V2.314zm4.176 33.575H7.235V15.185L19.974 2.72l12.791 12.464v20.704h.052z" fill="#81B3D2"/><path d="M16.058 14.422c0 2.187 1.828 3.968 4.02 3.968 2.245 0 4.073-1.781 4.073-3.968 0-2.188-1.828-3.918-4.073-3.918s-4.02 1.73-4.02 3.918zm4.02-2.544c1.41 0 2.61 1.12 2.61 2.544 0 1.373-1.148 2.543-2.61 2.543-1.41 0-2.61-1.119-2.61-2.543 0-1.374 1.2-2.544 2.61-2.544zM10.89 21.646H9.322v1.984h1.566v-1.984zM13.97 21.646h-1.566v1.984h1.566v-1.984zM10.89 24.698H9.322v1.983h1.566v-1.983zM13.97 24.698h-1.566v1.983h1.566v-1.983zM27.544 21.646h-1.566v1.984h1.566v-1.984zM30.677 21.646H29.11v1.984h1.566v-1.984zM27.544 24.698h-1.566v1.983h1.566v-1.983zM30.677 24.698H29.11v1.983h1.566v-1.983z" fill="#81B3D2"/></svg>