<svg xmlns="http://www.w3.org/2000/svg" xmlns:xlink="http://www.w3.org/1999/xlink"><symbol id="htmlacademy" viewBox="0 0 24 29"><path d="M12.134 0h-.09L0 1.19v21.007L12.045 29 24 22.197V1.19L12.134 0zm10.17 10.29l-10.26-5.783v-.085h-.089l-.089-.085v.085L1.696 10.29V2.636l10.26-1.02 10.349 1.02v7.654zM11.956 5.783l10.26 5.698-4.014 2.211-6.335-3.572v1.19l5.264 2.977-.803.426-4.46-2.552v1.19l3.39 1.957-.714.425-2.677-1.53v1.19l1.695.935-1.606.936-10.17-5.698 10.17-5.783zm-10.26 7.059l10.171 5.783v.85l-7.048-3.997v1.19l7.137 4.083v.935L4.818 17.69v1.19l7.137 4.083 7.227-4.167v-4.423l3.034-1.7v8.504l-10.26 5.868-10.26-5.783v-8.42z"/></symbol><symbol id="icon-burger" viewBox="0 0 76 69"><g fill="none"><path fill-rule="evenodd" clip-rule="evenodd" d="M70.531 30.375v-.001c.024-.828.055-1.945-.017-2.233C69.816 12.518 55.454 0 37.801 0 20.146 0 5.684 12.518 4.986 28.14v3.005h65.527c0-.168.008-.447.017-.77zm-32.73-27.37c15.957 0 29.123 11.216 29.721 25.136H7.98C8.677 14.22 21.843 3.004 37.801 3.004zM21.244 42.861l-5.386-4.006-5.485 4.006-6.383-4.707 1.795-2.403 4.588 3.305 5.485-4.006 5.386 4.006 5.486-4.006 5.485 4.006 5.486-4.006 5.386 4.006 5.485-4.006 5.486 4.006 5.485-4.006 5.486 4.006 4.588-3.305 1.695 2.403-6.283 4.707-5.486-4.006-5.485 4.006-5.486-4.006-5.485 4.006-5.386-4.006-5.486 4.006-5.485-4.006-5.486 4.006zM4.29 46.067H71.71c2.394 0 4.289 2.003 4.289 4.206v3.505c0 2.403-1.995 4.306-4.289 4.306h-.997v1.002c0 5.407-4.388 9.914-9.874 9.914H15.16c-5.386 0-9.874-4.406-9.874-9.914v-1.002H4.29C1.895 58.084 0 56.181 0 53.878v-3.505c0-2.303 1.895-4.306 4.289-4.306zm56.65 19.929c3.79 0 6.883-3.105 6.883-6.91v-1.002H8.178v1.002c0 3.805 3.092 6.91 6.882 6.91h45.88zM71.712 55.08c.698 0 1.297-.601 1.297-1.302h.1v-3.405c0-.701-.599-1.302-1.297-1.302H4.289c-.698 0-1.297.6-1.297 1.202v3.505c0 .7.599 1.302 1.297 1.302H71.71zM39.895 15.623a1.999 1.999 0 01-1.995 2.003 1.999 1.999 0 01-1.994-2.003c0-1.106.893-2.003 1.994-2.003 1.102 0 1.995.897 1.995 2.003zm-9.974-3.005a1.999 1.999 0 001.995-2.002 1.999 1.999 0 00-1.995-2.003 1.999 1.999 0 00-1.994 2.003c0 1.106.893 2.002 1.994 2.002zm17.953-2.002a1.999 1.999 0 01-1.995 2.002 1.999 1.999 0 01-1.994-2.002c0-1.107.893-2.003 1.994-2.003 1.102 0 1.995.896 1.995 2.003z" fill="#81B3D2"/></g></symbol><symbol id="icon-gift" viewBox="0 0 63 75"><g fill="none"><path d="M60.2 22.117H35.8C49.4 15.319 50.5 11.02 50 8.62c-1.1-3.899-5.6-6.898-9.8-5.298-5.5 2.099-7 10.296-8.5 16.194-1.9-5.998-3.7-13.595-8-17.494-1.2-1.1-3-2.2-5.7-2-4 .4-9.7 5.299-7.3 10.797 2.2 5.299 9.5 8.697 14.4 11.397H2.8c-1.6 0-2.8 1.3-2.8 2.799v11.196c0 1.6 1.3 2.8 2.8 2.8h.3V75h57V39.011h.1c1.6 0 2.8-1.3 2.8-2.799V25.016c0-1.6-1.3-2.9-2.8-2.9zM41.8 5.822c2.1-.3 4.9 1.3 5.2 3.199.4 2.699-3.3 5.198-5 6.298-2.5 1.7-4.9 2.599-7.2 3.999.8-3.7 2.5-12.896 7-13.496zm-22.6 9.797c-2.2-1.5-6.4-4.399-6.3-7.698.1-3.599 5.7-6.498 8.7-3.799 3.8 3.3 5.6 10.997 7 16.395-3.2-1.6-6.2-2.799-9.4-4.898zM25.1 72H6V39.01h19.1v32.99zm0-35.989H3V25.116h22.1v10.896zm10 35.989H28V25.116h7.1V72zm22 0h-19V39.01h19.1v32.99h-.1zM60 36.012H38.1V25.116H60v10.896z" fill="#81B3D2"/></g></symbol><symbol id="icon-house" viewBox="0 0 75 72"><g fill="none"><path fill-rule="evenodd" clip-rule="evenodd" d="M72.892 39.182L75 37.094l-9.94-9.845V.398H51.205v13.127L37.45 0 0 37.193l2.108 2.089 7.832-7.757v37.591H6.024V72h64.157v-2.884h-5.12v-37.69l7.83 7.756zm-18.775-35.8h7.931v20.983l-7.931-7.857V3.381zm7.931 65.635H12.952V28.54L37.45 4.177 62.048 28.54v40.476zM30.121 64.54h16.064V40.773H30.12v23.768zm13.052-2.884h-10.14v-18h10.14v18zM37.85 35.304c-4.216 0-7.73-3.48-7.73-7.757 0-4.276 3.413-7.657 7.73-7.657 4.318 0 7.832 3.38 7.832 7.657 0 4.276-3.514 7.757-7.831 7.757zm5.02-7.757c0-2.785-2.309-4.972-5.02-4.972-2.71 0-5.02 2.287-5.02 4.972 0 2.784 2.31 4.972 5.02 4.972 2.812 0 5.02-2.287 5.02-4.972zm-22.79 13.226h-3.013v3.879h3.012v-3.879zm3.011 0h3.012v3.879h-3.012v-3.879zM20.08 46.74h-3.012v3.879h3.012V46.74zm3.012 0h3.012v3.879h-3.012V46.74zm29.117-5.967h-3.012v3.879h3.012v-3.879zm3.012 0h3.012v3.879H55.22v-3.879zm-3.012 5.967h-3.012v3.879h3.012V46.74zm3.012 0h3.012v3.879H55.22V46.74z" fill="#81B3D2"/></g></symbol><symbol id="icon-like" viewBox="0 0 22 20"><path d="M12.4 3.6l-.6 2.9-.6 2.5h8.7v2.1L17 18H8V8l4.4-4.4zM2 10v8-8zM13.2 0L6.6 6.6c-.4.3-.6.8-.6 1.4v10c0 1.1.9 2 2 2h9c.8 0 1.5-.5 1.8-1.2l3-7.1c.1-.2.1-.5.1-.7V9h.1c0-1.1-.9-2-2-2h-6.3l1-4.6v-.3c0-.4-.2-.8-.4-1.1l-1.1-1zM4 8H0v12h4V8z"/></symbol><symbol id="icon-telegram" viewBox="0 0 22 18"><g fill="none"><path d="M21.44 1.622l-3.17 14.944c-.239 1.055-.862 1.317-1.748.82l-4.828-3.557-2.33 2.24c-.258.259-.473.474-.97.474l.347-4.917 8.948-8.086c.39-.347-.084-.54-.604-.192L6.022 10.314 1.26 8.823C.224 8.5.205 7.787 1.476 7.29L20.103.113c.863-.323 1.617.192 1.336 1.51z" fill="#fff"/></g></symbol><symbol id="icon-vkontakte" viewBox="0 0 24 14"><g fill="none"><path fill-rule="evenodd" clip-rule="evenodd" d="M23.45.948c.166-.546 0-.948-.795-.948H20.03c-.668 0-.976.347-1.143.73 0 0-1.335 3.196-3.226 5.272-.612.602-.89.793-1.224.793-.167 0-.418-.191-.418-.738V.948c0-.656-.184-.948-.74-.948H9.151c-.417 0-.668.304-.668.593 0 .621.946.765 1.043 2.513v3.798c0 .833-.153.984-.487.984-.89 0-3.055-3.211-4.34-6.885C4.45.288 4.198 0 3.527 0H.9C.15 0 0 .347 0 .73c0 .682.89 4.07 4.145 8.551C6.315 12.341 9.37 14 12.153 14c1.669 0 1.875-.368 1.875-1.003v-2.313c0-.737.158-.884.687-.884.39 0 1.057.192 2.615 1.667C19.11 13.216 19.403 14 20.405 14h2.625c.75 0 1.126-.368.91-1.096-.238-.724-1.088-1.775-2.215-3.022-.612-.71-1.53-1.475-1.809-1.858-.389-.491-.278-.71 0-1.147 0 0 3.2-4.426 3.533-5.929h.001z" fill="#fff"/></g></symbol><symbol id="icon-youtube" viewBox="0 0 20 14"><g fill="none"><path d="M17.181 0H2.813C1.306 0 0 1.3 0 2.8v8.3C0 12.7 1.306 14 2.813 14h14.368c1.608 0 2.814-1.3 2.814-2.8V2.8c.1-1.5-1.206-2.8-2.814-2.8zM7.033 10.4V3.6L13.866 7l-6.833 3.4z" fill="#fff"/></g></symbol></svg>