<svg viewBox="0 0 24 29" fill="" xmlns="http://www.w3.org/2000/svg">
<path d="M12.1338 0H12.0446L0 1.19062V22.1965L12.0446 29L24 22.1965V1.19062L12.1338 0ZM22.3048 10.2903L12.0446 4.50733V4.42229H11.9554L11.8662 4.33724V4.42229L1.69517 10.2903V2.63636L11.9554 1.61584L22.3048 2.63636V10.2903ZM11.9554 5.78299L22.2156 11.4809L18.2007 13.6921L11.8662 10.1202V11.3109L17.1301 14.2874L16.3271 14.7126L11.8662 12.1613V13.3519L15.2565 15.3079L14.5428 15.7331L11.8662 14.2023V15.393L13.5613 16.3284L11.9554 17.2639L1.78439 11.566L11.9554 5.78299ZM1.69517 12.8416L11.8662 18.6246V19.4751L4.81784 15.478V16.6686L11.9554 20.7507V21.6862L4.81784 17.6891V18.8798L11.9554 22.9619L19.1822 18.7947V14.3724L22.2156 12.6716V21.176L11.9554 27.044L1.69517 21.261V12.8416Z"/>
</svg>
